<svg xmlns="http://www.w3.org/2000/svg" width="350" height="100" viewBox="0 0 350 100" fill="none"><path d="M127.44 33.4801V37.8831H134.396V45.1588H127.44V69.4737H118.823V45.1588H114.355V37.8831H118.823V32.7134C118.823 24.6089 123.673 20.8422 131.012 20.8422C132.991 20.8422 134.523 21.1619 135.735 21.5436V28.7557C134.778 28.6285 134.012 28.5649 133.182 28.5649C129.353 28.5666 127.44 29.8422 127.44 33.4801Z" fill="#02174F"></path><path d="M140.138 21.6106H148.753V69.4754H140.138V21.6106Z" fill="#02174F"></path><path d="M186.662 37.8848L171.536 72.2193C168.665 78.7283 164.898 81.7284 158.964 81.7284C157.177 81.7284 155.071 81.4086 153.411 80.9633V73.7512C154.879 73.8784 156.091 74.0073 157.112 74.0073C159.856 74.0073 162.089 73.3058 163.685 69.7316L164.642 67.5619L152.517 37.8864H161.642L169.365 58.6271L177.598 37.8864H186.662V37.8848Z" fill="#02174F"></path><path d="M222.528 53.7119C222.528 63.2209 216.147 70.2405 207.212 70.2405C202.872 70.2405 199.235 68.5178 197.065 65.5814V69.4737H189.151V21.6106H197.766V40.9484C200 38.5226 203.254 37.1833 207.212 37.1833C216.147 37.1816 222.528 44.2029 222.528 53.7119ZM213.784 53.6483C213.784 48.2877 210.083 44.9696 205.616 44.9696C201.595 44.9696 197.639 47.7135 197.639 53.7136C197.639 59.7756 201.66 62.3922 205.616 62.3922C210.147 62.3905 213.784 59.0088 213.784 53.6483Z" fill="#02174F"></path><path d="M226.421 55.5618V37.8831H235.036V56.2632C235.036 59.9647 237.652 62.3252 241.034 62.3252C244.289 62.3252 246.905 59.963 246.905 56.2632V37.8847H255.52V55.5635C255.52 64.4982 249.266 70.2422 241.034 70.2422C232.675 70.2405 226.421 64.4966 226.421 55.5618Z" fill="#02174F"></path><path d="M293.109 37.8848L277.984 72.2193C275.112 78.7283 271.346 81.7284 265.411 81.7284C263.625 81.7284 261.519 81.4086 259.858 80.9633V73.7512C261.326 73.8784 262.538 74.0073 263.559 74.0073C266.303 74.0073 268.537 73.3058 270.132 69.7316L271.09 67.5619L258.964 37.8864H268.09L275.812 58.6271L284.046 37.8864H293.109V37.8848Z" fill="#02174F"></path><path d="M79.0209 25.5632C82.0762 25.5632 84.8971 26.5794 87.1689 28.2887C87.656 28.6553 88.3357 28.6168 88.766 28.1832L92.1728 24.7346C92.67 24.2306 92.6332 23.402 92.0824 22.9583C88.5081 20.0688 83.9646 18.3361 79.0209 18.3361C73.9316 18.3361 69.2675 20.1759 65.648 23.2211C65.109 23.6748 65.0838 24.5002 65.5861 24.9957L69.0264 28.3959C69.4633 28.8278 70.1497 28.8562 70.6319 28.4745C72.9438 26.6531 75.8568 25.5632 79.0209 25.5632Z" fill="#00E5C8"></path><path d="M92.6047 39.1471C92.6047 41.7553 91.8882 44.228 90.5188 46.3876C90.5004 46.4178 90.4803 46.4462 90.4585 46.4747L89.4239 47.8776C89.4189 47.886 89.4122 47.8927 89.4055 47.8994C89.2414 48.0952 89.2565 48.3849 89.439 48.564L93.343 52.4229C93.8486 52.9217 94.674 52.8782 95.1243 52.3291C95.1578 52.2872 95.1913 52.2471 95.2247 52.2052L95.2314 52.1952C98.198 48.5121 99.8303 43.8848 99.8303 39.1471C99.8303 34.6671 98.4056 30.5136 95.9881 27.1135C95.5579 26.5091 94.679 26.4505 94.1583 26.9779L90.7029 30.4751C90.3078 30.8752 90.2459 31.4913 90.5439 31.9684C91.8497 34.0527 92.6047 36.5137 92.6047 39.1471Z" fill="#A162F7"></path><path d="M68.6146 47.8759L67.5783 46.4679C67.5582 46.4395 67.5381 46.411 67.518 46.3809C66.1519 44.2246 65.4371 41.7536 65.4371 39.147C65.4371 36.6191 66.1335 34.2502 67.3422 32.2212C67.6252 31.7457 67.5482 31.138 67.1531 30.7479L63.6525 27.2892C63.1234 26.7652 62.2395 26.8372 61.821 27.4516C59.5442 30.7864 58.2099 34.8127 58.2099 39.147C58.2099 43.8864 59.8422 48.512 62.8087 52.1951L62.8606 52.2604C62.879 52.2838 62.8974 52.3056 62.9159 52.329L62.9745 52.401C63.4298 52.9485 64.2585 52.9853 64.7607 52.478L68.6162 48.5756C68.7937 48.3948 68.8071 48.1102 68.6447 47.9144L68.6313 47.8993C68.6263 47.8909 68.6213 47.8842 68.6146 47.8759Z" fill="#1DAEFC"></path><path d="M78.0934 59.285L71.7016 51.5924C71.2463 51.045 70.4176 51.0082 69.9154 51.5154L66.5135 54.9574C66.0783 55.3994 66.0481 56.0992 66.4432 56.5763L76.123 68.2231C77.6297 70.0362 80.4104 70.0362 81.9171 68.2231L91.6538 56.506C92.0539 56.0238 92.0188 55.3173 91.5735 54.877L88.1365 51.4803C87.6343 50.983 86.8123 51.0232 86.3619 51.5673L79.95 59.2833C79.4662 59.8643 78.5756 59.8643 78.0934 59.285Z" fill="#02174F"></path></svg>